<svg width="80" height="80" viewBox="0 0 80 80" fill="none" xmlns="http://www.w3.org/2000/svg">
<path d="M40 0C62.0914 0 80 17.9086 80 40C80 62.0914 62.0914 80 40 80C17.9086 80 0 62.0914 0 40C0 17.9086 17.9086 0 40 0Z" fill="#FEE500"/>
<path d="M40 0C62.0914 0 80 17.9086 80 40C80 62.0914 62.0914 80 40 80C17.9086 80 0 62.0914 0 40C0 17.9086 17.9086 0 40 0Z" stroke="#E5E7EB"/>
<path d="M52 56H28V24H52V56Z" stroke="#E5E7EB"/>
<g clip-path="url(#clip0_5_209)">
<path d="M40.0005 48C46.6286 48 52.0005 43.6359 52.0005 38.25C52.0005 32.8641 46.6286 28.5 40.0005 28.5C33.3724 28.5 28.0005 32.8641 28.0005 38.25C28.0005 40.3641 28.8302 42.3187 30.2364 43.9172C30.1474 45.0656 29.702 46.0875 29.2333 46.8656C28.9755 47.2969 28.713 47.6437 28.5208 47.8781C28.4224 47.9953 28.3474 48.0844 28.2911 48.1453C28.263 48.1734 28.2442 48.1969 28.2302 48.2109L28.2161 48.225C28.0005 48.4406 27.9395 48.7594 28.0567 49.0406C28.1739 49.3219 28.4458 49.5047 28.7505 49.5047C30.0958 49.5047 31.4505 49.0875 32.5755 48.6C33.6489 48.1312 34.563 47.5734 35.1208 47.1656C36.6114 47.7047 38.2614 48.0047 40.0005 48.0047V48ZM34.0005 36.75C34.3983 36.75 34.7798 36.908 35.0611 37.1893C35.3424 37.4706 35.5005 37.8522 35.5005 38.25C35.5005 38.6478 35.3424 39.0294 35.0611 39.3107C34.7798 39.592 34.3983 39.75 34.0005 39.75C33.6027 39.75 33.2211 39.592 32.9398 39.3107C32.6585 39.0294 32.5005 38.6478 32.5005 38.25C32.5005 37.8522 32.6585 37.4706 32.9398 37.1893C33.2211 36.908 33.6027 36.75 34.0005 36.75ZM40.0005 36.75C40.3983 36.75 40.7798 36.908 41.0611 37.1893C41.3424 37.4706 41.5005 37.8522 41.5005 38.25C41.5005 38.6478 41.3424 39.0294 41.0611 39.3107C40.7798 39.592 40.3983 39.75 40.0005 39.75C39.6027 39.75 39.2211 39.592 38.9398 39.3107C38.6585 39.0294 38.5005 38.6478 38.5005 38.25C38.5005 37.8522 38.6585 37.4706 38.9398 37.1893C39.2211 36.908 39.6027 36.75 40.0005 36.75ZM44.5005 38.25C44.5005 37.8522 44.6585 37.4706 44.9398 37.1893C45.2211 36.908 45.6027 36.75 46.0005 36.75C46.3983 36.75 46.7798 36.908 47.0611 37.1893C47.3424 37.4706 47.5005 37.8522 47.5005 38.25C47.5005 38.6478 47.3424 39.0294 47.0611 39.3107C46.7798 39.592 46.3983 39.75 46.0005 39.75C45.6027 39.75 45.2211 39.592 44.9398 39.3107C44.6585 39.0294 44.5005 38.6478 44.5005 38.25Z" fill="#1F2937"/>
</g>
<defs>
<clipPath id="clip0_5_209">
<path d="M28 27H52V51H28V27Z" fill="white"/>
</clipPath>
</defs>
</svg>
