<svg width="32" height="32" viewBox="0 0 32 32" fill="none" xmlns="http://www.w3.org/2000/svg">
<circle cx="16" cy="16" r="16" fill="#D9D9D9"/>
<path fill-rule="evenodd" clip-rule="evenodd" d="M16.6872 22.3797V25.1663H15.3122V22.3797C13.7385 22.2101 12.283 21.4648 11.2254 20.2872C10.1679 19.1095 9.58294 17.5825 9.58301 15.9997V14.1663H10.958V15.9997C10.958 17.3368 11.4892 18.6192 12.4347 19.5647C13.3802 20.5102 14.6625 21.0413 15.9997 21.0413C17.3368 21.0413 18.6192 20.5102 19.5647 19.5647C20.5102 18.6192 21.0413 17.3368 21.0413 15.9997V14.1663H22.4163V15.9997C22.4164 17.5825 21.8315 19.1095 20.7739 20.2872C19.7164 21.4648 18.2609 22.2101 16.6872 22.3797ZM12.333 10.4997C12.333 9.52721 12.7193 8.59458 13.4069 7.90695C14.0946 7.21932 15.0272 6.83301 15.9997 6.83301C16.9721 6.83301 17.9048 7.21932 18.5924 7.90695C19.28 8.59458 19.6663 9.52721 19.6663 10.4997V15.9997C19.6663 16.9721 19.28 17.9048 18.5924 18.5924C17.9048 19.28 16.9721 19.6663 15.9997 19.6663C15.0272 19.6663 14.0946 19.28 13.4069 18.5924C12.7193 17.9048 12.333 16.9721 12.333 15.9997V10.4997Z" fill="white"/>
</svg>
