<svg width="18" height="19" viewBox="0 0 18 19" fill="none" xmlns="http://www.w3.org/2000/svg">
<path d="M18 18.25H0V0.25H18V18.25Z" stroke="#E5E7EB"/>
<path d="M13.5808 5.8749H11.8124C11.1901 5.8749 10.6874 6.37764 10.6874 6.9999C10.6874 7.62217 11.1901 8.1249 11.8124 8.1249H16.3124C16.9347 8.1249 17.4374 7.62217 17.4374 6.9999V2.4999C17.4374 1.87764 16.9347 1.3749 16.3124 1.3749C15.6901 1.3749 15.1874 1.87764 15.1874 2.4999V4.2999L14.5687 3.68115C11.4925 0.60498 6.50732 0.60498 3.43115 3.68115C0.35498 6.75732 0.35498 11.7425 3.43115 14.8187C6.50732 17.8948 11.4925 17.8948 14.5687 14.8187C15.0081 14.3792 15.0081 13.6655 14.5687 13.2261C14.1292 12.7866 13.4155 12.7866 12.9761 13.2261C10.7788 15.4233 7.21748 15.4233 5.02022 13.2261C2.82295 11.0288 2.82295 7.46748 5.02022 5.27022C7.21748 3.07295 10.7788 3.07295 12.9761 5.27022L13.5808 5.8749Z" fill="#4B5563"/>
</svg>
