<svg width="18" height="15" viewBox="0 0 18 15" fill="none" xmlns="http://www.w3.org/2000/svg">
<g clip-path="url(#clip0_5_508)">
<path d="M14.5906 1.6383C16.3652 3.08205 17.5 5.28322 17.5 7.74963C17.5 10.216 16.3652 12.4199 14.5906 13.861C14.309 14.0906 13.8961 14.0469 13.6664 13.7653C13.4367 13.4836 13.4805 13.0707 13.7621 12.841C15.2441 11.6379 16.1875 9.80588 16.1875 7.74963C16.1875 5.69338 15.2441 3.86135 13.7621 2.65549C13.4805 2.4258 13.4395 2.01291 13.6664 1.73127C13.8934 1.44963 14.309 1.40861 14.5906 1.63557V1.6383ZM12.9363 3.67541C14.1176 4.63791 14.875 6.10627 14.875 7.74963C14.875 9.39299 14.1176 10.8613 12.9363 11.8238C12.6547 12.0535 12.2418 12.0098 12.0121 11.7281C11.7824 11.4465 11.8262 11.0336 12.1078 10.8039C12.9965 10.0821 13.5625 8.98283 13.5625 7.74963C13.5625 6.51643 12.9965 5.41721 12.1078 4.6926C11.8262 4.46291 11.7852 4.05002 12.0121 3.76838C12.2391 3.48674 12.6547 3.44572 12.9363 3.67268V3.67541ZM11.282 5.71252C11.8699 6.19377 12.25 6.92658 12.25 7.74963C12.25 8.57268 11.8699 9.30549 11.282 9.78674C11.0004 10.0164 10.5875 9.97268 10.3578 9.69104C10.1281 9.40939 10.1719 8.9965 10.4535 8.76682C10.7488 8.52619 10.9375 8.15978 10.9375 7.74963C10.9375 7.33947 10.7488 6.97307 10.4535 6.72971C10.1719 6.50002 10.1309 6.08713 10.3578 5.80549C10.5848 5.52385 11.0004 5.48283 11.282 5.70978V5.71252ZM8.2332 1.70119C8.54766 1.84338 8.75 2.1551 8.75 2.49963V12.9996C8.75 13.3442 8.54766 13.6559 8.2332 13.7981C7.91875 13.9403 7.54961 13.8828 7.29258 13.6531L3.60391 10.3746H1.75C0.784766 10.3746 0 9.58986 0 8.62463V6.87463C0 5.90939 0.784766 5.12463 1.75 5.12463H3.60391L7.29258 1.84611C7.54961 1.61643 7.91875 1.56174 8.2332 1.70119Z" fill="#4B5563"/>
</g>
<defs>
<clipPath id="clip0_5_508">
<path d="M0 0.75H17.5V14.75H0V0.75Z" fill="white"/>
</clipPath>
</defs>
</svg>
