<svg width="45" height="36" viewBox="0 0 45 36" fill="none" xmlns="http://www.w3.org/2000/svg">
<g clip-path="url(#clip0_5_240)">
<path d="M45 36H0V0H45V36Z" stroke="#E5E7EB"/>
<path d="M10.125 33.75C4.53516 33.75 0 29.2148 0 23.625C0 19.2094 2.82656 15.4547 6.76406 14.0695C6.75703 13.8797 6.75 13.6898 6.75 13.5C6.75 7.28437 11.7844 2.25 18 2.25C22.1695 2.25 25.8047 4.51406 27.7523 7.88906C28.8211 7.17188 30.1148 6.75 31.5 6.75C35.2266 6.75 38.25 9.77344 38.25 13.5C38.25 14.3578 38.0883 15.1734 37.8 15.9328C41.9062 16.7625 45 20.3977 45 24.75C45 29.7211 40.9711 33.75 36 33.75H10.125ZM15.6797 18.4922C15.0188 19.1531 15.0188 20.2219 15.6797 20.8758C16.3406 21.5297 17.4094 21.5367 18.0633 20.8758L20.8055 18.1336V27.5625C20.8055 28.4977 21.5578 29.25 22.493 29.25C23.4281 29.25 24.1805 28.4977 24.1805 27.5625V18.1336L26.9227 20.8758C27.5836 21.5367 28.6523 21.5367 29.3062 20.8758C29.9602 20.2148 29.9672 19.1461 29.3062 18.4922L23.6812 12.8672C23.0203 12.2063 21.9516 12.2063 21.2977 12.8672L15.6727 18.4922H15.6797Z" fill="#9CA3AF"/>
</g>
<defs>
<clipPath id="clip0_5_240">
<rect width="45" height="36" fill="white"/>
</clipPath>
</defs>
</svg>
